<svg width="32" height="32" viewBox="0 0 32 32" fill="none" xmlns="http://www.w3.org/2000/svg">
<rect width="32" height="32" fill="#DCDCDC"/>
<path d="M16 11C18.76 11 21 13.24 21 16C21 16.65 20.87 17.26 20.64 17.83L23.56 20.75C25.07 19.49 26.26 17.86 26.99 16C25.26 11.61 20.99 8.5 15.99 8.5C14.59 8.5 13.25 8.75 12.01 9.2L14.17 11.36C14.74 11.13 15.35 11 16 11ZM6 8.27L8.28 10.55L8.74 11.01C7.08 12.3 5.78 14.02 5 16C6.73 20.39 11 23.5 16 23.5C17.55 23.5 19.03 23.2 20.38 22.66L20.8 23.08L23.73 26L25 24.73L7.27 7L6 8.27ZM11.53 13.8L13.08 15.35C13.03 15.56 13 15.78 13 16C13 17.66 14.34 19 16 19C16.22 19 16.44 18.97 16.65 18.92L18.2 20.47C17.53 20.8 16.79 21 16 21C13.24 21 11 18.76 11 16C11 15.21 11.2 14.47 11.53 13.8ZM15.84 13.02L18.99 16.17L19.01 16.01C19.01 14.35 17.67 13.01 16.01 13.01L15.84 13.02Z" fill="white"/>
</svg>
